# xmcd
#
# Track frame offsets:
#  150
#  18280
#  42316
#  46555
#  75009
#  123749
#  144081
#  166883
#  181335
#  204926
#  237683
#
# Disc length: 3372 seconds
#
# Revision: 1
# Processed by: cddbd v1.5.1PL2 Copyright (c) Steve Scherf et al.
# Submitted via: Collectorz.com_Music_Collector 6.11
#
DISCID=7e0d2a0b
DTITLE=Triosk - The Headlight Serenade
DYEAR=2006
DGENRE=DSP - Electronica - Jazz
TTITLE0=Visions IV
TTITLE1=Lost Broadcast
TTITLE2=Lost Reprise
TTITLE3=Intensives Leben
TTITLE4=Lazyboat
TTITLE5=Not To Hurt You
TTITLE6=Headlights
TTITLE7=One, Twenty-Four
TTITLE8=Vostok
TTITLE9=Moment Returns
TTITLE10=Fear Survivor
EXTD=
EXTT0=
EXTT1=
EXTT2=
EXTT3=
EXTT4=
EXTT5=
EXTT6=
EXTT7=
EXTT8=
EXTT9=
EXTT10=
PLAYORDER=
